<mxfile host="app.diagrams.net" modified="2023-11-24T23:57:11.963Z" agent="Mozilla/5.0 (Windows NT 10.0; Win64; x64) AppleWebKit/537.36 (KHTML, like Gecko) Chrome/119.0.0.0 Safari/537.36" etag="eN3YX8i4McID5gGkNbUt" version="22.1.4" type="device">
  <diagram id="C5RBs43oDa-KdzZeNtuy" name="Page-1">
    <mxGraphModel dx="2503" dy="1358" grid="1" gridSize="10" guides="1" tooltips="1" connect="1" arrows="1" fold="1" page="0" pageScale="1" pageWidth="827" pageHeight="1169" math="0" shadow="0">
      <root>
        <mxCell id="WIyWlLk6GJQsqaUBKTNV-0" />
        <mxCell id="WIyWlLk6GJQsqaUBKTNV-1" parent="WIyWlLk6GJQsqaUBKTNV-0" />
        <mxCell id="aTunYatAO1bWsIIj06gY-6" style="edgeStyle=orthogonalEdgeStyle;rounded=0;orthogonalLoop=1;jettySize=auto;html=1;exitX=0.5;exitY=1;exitDx=0;exitDy=0;exitPerimeter=0;entryX=0.5;entryY=0;entryDx=0;entryDy=0;labelBackgroundColor=none;fontColor=default;strokeWidth=3;fontSize=17;" edge="1" parent="WIyWlLk6GJQsqaUBKTNV-1" source="aTunYatAO1bWsIIj06gY-0" target="aTunYatAO1bWsIIj06gY-5">
          <mxGeometry relative="1" as="geometry" />
        </mxCell>
        <mxCell id="aTunYatAO1bWsIIj06gY-0" value="&lt;font style=&quot;font-size: 17px;&quot;&gt;&lt;b style=&quot;font-size: 17px;&quot;&gt;Start&lt;/b&gt;&lt;/font&gt;" style="strokeWidth=3;html=1;shape=mxgraph.flowchart.start_1;whiteSpace=wrap;labelBackgroundColor=none;fontSize=17;" vertex="1" parent="WIyWlLk6GJQsqaUBKTNV-1">
          <mxGeometry x="220" y="-310" width="190" height="110" as="geometry" />
        </mxCell>
        <mxCell id="aTunYatAO1bWsIIj06gY-1" value="Input: Choice" style="shape=parallelogram;html=1;strokeWidth=3;perimeter=parallelogramPerimeter;whiteSpace=wrap;rounded=1;arcSize=12;size=0.23;labelBackgroundColor=none;fontSize=17;" vertex="1" parent="WIyWlLk6GJQsqaUBKTNV-1">
          <mxGeometry x="671" y="-50" width="220" height="90" as="geometry" />
        </mxCell>
        <mxCell id="aTunYatAO1bWsIIj06gY-3" value="Switch on Choice" style="rounded=1;whiteSpace=wrap;html=1;absoluteArcSize=1;arcSize=14;strokeWidth=3;labelBackgroundColor=none;fontSize=17;" vertex="1" parent="WIyWlLk6GJQsqaUBKTNV-1">
          <mxGeometry x="290" y="50" width="180" height="100" as="geometry" />
        </mxCell>
        <mxCell id="aTunYatAO1bWsIIj06gY-4" style="edgeStyle=orthogonalEdgeStyle;rounded=0;orthogonalLoop=1;jettySize=auto;html=1;exitX=0.5;exitY=1;exitDx=0;exitDy=0;entryX=0.587;entryY=-0.033;entryDx=0;entryDy=0;entryPerimeter=0;labelBackgroundColor=none;fontColor=default;strokeWidth=3;fontSize=17;" edge="1" parent="WIyWlLk6GJQsqaUBKTNV-1" source="aTunYatAO1bWsIIj06gY-1" target="aTunYatAO1bWsIIj06gY-3">
          <mxGeometry relative="1" as="geometry" />
        </mxCell>
        <mxCell id="aTunYatAO1bWsIIj06gY-7" style="edgeStyle=orthogonalEdgeStyle;rounded=0;orthogonalLoop=1;jettySize=auto;html=1;exitX=0.5;exitY=1;exitDx=0;exitDy=0;entryX=0.5;entryY=0;entryDx=0;entryDy=0;labelBackgroundColor=none;fontColor=default;strokeWidth=3;fontSize=17;" edge="1" parent="WIyWlLk6GJQsqaUBKTNV-1" source="aTunYatAO1bWsIIj06gY-5" target="aTunYatAO1bWsIIj06gY-1">
          <mxGeometry relative="1" as="geometry" />
        </mxCell>
        <mxCell id="aTunYatAO1bWsIIj06gY-5" value="Display Menu" style="shape=parallelogram;html=1;strokeWidth=3;perimeter=parallelogramPerimeter;whiteSpace=wrap;rounded=1;arcSize=12;size=0.23;labelBackgroundColor=none;fontSize=17;" vertex="1" parent="WIyWlLk6GJQsqaUBKTNV-1">
          <mxGeometry x="445" y="-210" width="240" height="100" as="geometry" />
        </mxCell>
        <mxCell id="aTunYatAO1bWsIIj06gY-24" value="" style="edgeStyle=orthogonalEdgeStyle;rounded=0;orthogonalLoop=1;jettySize=auto;html=1;labelBackgroundColor=none;fontColor=default;strokeWidth=3;fontSize=17;" edge="1" parent="WIyWlLk6GJQsqaUBKTNV-1" source="aTunYatAO1bWsIIj06gY-8" target="aTunYatAO1bWsIIj06gY-23">
          <mxGeometry relative="1" as="geometry" />
        </mxCell>
        <mxCell id="aTunYatAO1bWsIIj06gY-8" value="Case 1: List Books" style="strokeWidth=3;html=1;shape=mxgraph.flowchart.decision;whiteSpace=wrap;labelBackgroundColor=none;fontSize=17;" vertex="1" parent="WIyWlLk6GJQsqaUBKTNV-1">
          <mxGeometry x="245" y="220" width="190" height="150" as="geometry" />
        </mxCell>
        <mxCell id="aTunYatAO1bWsIIj06gY-60" style="edgeStyle=orthogonalEdgeStyle;rounded=0;orthogonalLoop=1;jettySize=auto;html=1;exitX=1;exitY=0.5;exitDx=0;exitDy=0;exitPerimeter=0;entryX=0;entryY=0.5;entryDx=0;entryDy=0;strokeWidth=3;fontSize=17;" edge="1" parent="WIyWlLk6GJQsqaUBKTNV-1" source="aTunYatAO1bWsIIj06gY-9" target="aTunYatAO1bWsIIj06gY-31">
          <mxGeometry relative="1" as="geometry" />
        </mxCell>
        <mxCell id="aTunYatAO1bWsIIj06gY-89" style="edgeStyle=orthogonalEdgeStyle;rounded=0;orthogonalLoop=1;jettySize=auto;html=1;exitX=0.5;exitY=1;exitDx=0;exitDy=0;exitPerimeter=0;strokeWidth=3;fontSize=17;" edge="1" parent="WIyWlLk6GJQsqaUBKTNV-1" source="aTunYatAO1bWsIIj06gY-9">
          <mxGeometry relative="1" as="geometry">
            <mxPoint x="340" y="740" as="targetPoint" />
            <Array as="points">
              <mxPoint x="340" y="710" />
              <mxPoint x="341" y="740" />
            </Array>
          </mxGeometry>
        </mxCell>
        <mxCell id="aTunYatAO1bWsIIj06gY-9" value="Case 2: Borrow Book" style="strokeWidth=3;html=1;shape=mxgraph.flowchart.decision;whiteSpace=wrap;labelBackgroundColor=none;fontSize=17;" vertex="1" parent="WIyWlLk6GJQsqaUBKTNV-1">
          <mxGeometry x="245" y="530" width="190" height="150" as="geometry" />
        </mxCell>
        <mxCell id="aTunYatAO1bWsIIj06gY-63" style="edgeStyle=orthogonalEdgeStyle;rounded=0;orthogonalLoop=1;jettySize=auto;html=1;exitX=1;exitY=0.5;exitDx=0;exitDy=0;exitPerimeter=0;entryX=0;entryY=0.5;entryDx=0;entryDy=0;strokeWidth=3;fontSize=17;" edge="1" parent="WIyWlLk6GJQsqaUBKTNV-1" source="aTunYatAO1bWsIIj06gY-10" target="aTunYatAO1bWsIIj06gY-62">
          <mxGeometry relative="1" as="geometry" />
        </mxCell>
        <mxCell id="aTunYatAO1bWsIIj06gY-10" value="Case 3: Return Book" style="strokeWidth=3;html=1;shape=mxgraph.flowchart.decision;whiteSpace=wrap;labelBackgroundColor=none;fontSize=17;" vertex="1" parent="WIyWlLk6GJQsqaUBKTNV-1">
          <mxGeometry x="246" y="739" width="190" height="150" as="geometry" />
        </mxCell>
        <mxCell id="aTunYatAO1bWsIIj06gY-109" style="edgeStyle=orthogonalEdgeStyle;rounded=0;orthogonalLoop=1;jettySize=auto;html=1;exitX=0.5;exitY=1;exitDx=0;exitDy=0;exitPerimeter=0;entryX=0.75;entryY=0;entryDx=0;entryDy=0;" edge="1" parent="WIyWlLk6GJQsqaUBKTNV-1">
          <mxGeometry relative="1" as="geometry">
            <mxPoint x="246.5" y="1121" as="sourcePoint" />
            <mxPoint x="376.25" y="1231" as="targetPoint" />
          </mxGeometry>
        </mxCell>
        <mxCell id="aTunYatAO1bWsIIj06gY-11" value="Case 4: Exit" style="strokeWidth=3;html=1;shape=mxgraph.flowchart.decision;whiteSpace=wrap;labelBackgroundColor=none;fontSize=17;" vertex="1" parent="WIyWlLk6GJQsqaUBKTNV-1">
          <mxGeometry x="151.5" y="970" width="190" height="150" as="geometry" />
        </mxCell>
        <mxCell id="aTunYatAO1bWsIIj06gY-15" style="edgeStyle=orthogonalEdgeStyle;rounded=0;orthogonalLoop=1;jettySize=auto;html=1;exitX=0.5;exitY=1;exitDx=0;exitDy=0;exitPerimeter=0;entryX=0.5;entryY=0;entryDx=0;entryDy=0;entryPerimeter=0;labelBackgroundColor=none;fontColor=default;strokeWidth=3;fontSize=17;" edge="1" parent="WIyWlLk6GJQsqaUBKTNV-1" source="aTunYatAO1bWsIIj06gY-10" target="aTunYatAO1bWsIIj06gY-11">
          <mxGeometry relative="1" as="geometry" />
        </mxCell>
        <mxCell id="aTunYatAO1bWsIIj06gY-90" style="edgeStyle=orthogonalEdgeStyle;rounded=0;orthogonalLoop=1;jettySize=auto;html=1;exitX=1;exitY=0.5;exitDx=0;exitDy=0;entryX=0.75;entryY=0;entryDx=0;entryDy=0;strokeWidth=3;fontSize=17;" edge="1" parent="WIyWlLk6GJQsqaUBKTNV-1" source="aTunYatAO1bWsIIj06gY-23" target="aTunYatAO1bWsIIj06gY-66">
          <mxGeometry relative="1" as="geometry">
            <Array as="points">
              <mxPoint x="1490" y="295" />
              <mxPoint x="1490" y="1340" />
              <mxPoint x="460" y="1340" />
              <mxPoint x="460" y="1180" />
              <mxPoint x="376" y="1180" />
            </Array>
          </mxGeometry>
        </mxCell>
        <mxCell id="aTunYatAO1bWsIIj06gY-23" value="List all books" style="whiteSpace=wrap;html=1;strokeWidth=3;labelBackgroundColor=none;fontSize=17;" vertex="1" parent="WIyWlLk6GJQsqaUBKTNV-1">
          <mxGeometry x="730" y="265" width="120" height="60" as="geometry" />
        </mxCell>
        <mxCell id="aTunYatAO1bWsIIj06gY-61" style="edgeStyle=orthogonalEdgeStyle;rounded=0;orthogonalLoop=1;jettySize=auto;html=1;exitX=1;exitY=0.75;exitDx=0;exitDy=0;entryX=0.5;entryY=0;entryDx=0;entryDy=0;strokeWidth=3;fontSize=17;" edge="1" parent="WIyWlLk6GJQsqaUBKTNV-1" source="aTunYatAO1bWsIIj06gY-31" target="aTunYatAO1bWsIIj06gY-34">
          <mxGeometry relative="1" as="geometry" />
        </mxCell>
        <mxCell id="aTunYatAO1bWsIIj06gY-31" value="Input Book Name" style="shape=parallelogram;html=1;strokeWidth=3;perimeter=parallelogramPerimeter;whiteSpace=wrap;rounded=1;arcSize=12;size=0.23;labelBackgroundColor=none;fontSize=17;" vertex="1" parent="WIyWlLk6GJQsqaUBKTNV-1">
          <mxGeometry x="560" y="573" width="150" height="65" as="geometry" />
        </mxCell>
        <mxCell id="aTunYatAO1bWsIIj06gY-51" style="edgeStyle=orthogonalEdgeStyle;rounded=0;orthogonalLoop=1;jettySize=auto;html=1;exitX=1;exitY=0.5;exitDx=0;exitDy=0;entryX=0.5;entryY=0;entryDx=0;entryDy=0;labelBackgroundColor=none;fontColor=default;strokeWidth=3;fontSize=17;" edge="1" parent="WIyWlLk6GJQsqaUBKTNV-1" source="aTunYatAO1bWsIIj06gY-34" target="aTunYatAO1bWsIIj06gY-38">
          <mxGeometry relative="1" as="geometry" />
        </mxCell>
        <mxCell id="aTunYatAO1bWsIIj06gY-34" value="Check if Book Exists" style="rhombus;whiteSpace=wrap;html=1;strokeWidth=3;rounded=1;arcSize=12;labelBackgroundColor=none;fontSize=17;" vertex="1" parent="WIyWlLk6GJQsqaUBKTNV-1">
          <mxGeometry x="760" y="515" width="145" height="107.5" as="geometry" />
        </mxCell>
        <mxCell id="aTunYatAO1bWsIIj06gY-52" style="edgeStyle=orthogonalEdgeStyle;rounded=0;orthogonalLoop=1;jettySize=auto;html=1;exitX=1;exitY=0.5;exitDx=0;exitDy=0;entryX=0.5;entryY=0;entryDx=0;entryDy=0;labelBackgroundColor=none;fontColor=default;strokeWidth=3;fontSize=17;" edge="1" parent="WIyWlLk6GJQsqaUBKTNV-1" source="aTunYatAO1bWsIIj06gY-38" target="aTunYatAO1bWsIIj06gY-48">
          <mxGeometry relative="1" as="geometry" />
        </mxCell>
        <mxCell id="aTunYatAO1bWsIIj06gY-92" style="edgeStyle=orthogonalEdgeStyle;rounded=0;orthogonalLoop=1;jettySize=auto;html=1;exitX=0;exitY=0.5;exitDx=0;exitDy=0;entryX=0.5;entryY=0;entryDx=0;entryDy=0;strokeWidth=3;fontSize=17;" edge="1" parent="WIyWlLk6GJQsqaUBKTNV-1" source="aTunYatAO1bWsIIj06gY-38" target="aTunYatAO1bWsIIj06gY-46">
          <mxGeometry relative="1" as="geometry">
            <Array as="points">
              <mxPoint x="910" y="648" />
              <mxPoint x="910" y="728" />
              <mxPoint x="950" y="728" />
            </Array>
          </mxGeometry>
        </mxCell>
        <mxCell id="aTunYatAO1bWsIIj06gY-38" value="Check if Book Available" style="rhombus;whiteSpace=wrap;html=1;strokeWidth=3;rounded=1;arcSize=12;labelBackgroundColor=none;fontSize=17;" vertex="1" parent="WIyWlLk6GJQsqaUBKTNV-1">
          <mxGeometry x="980" y="594" width="145" height="107.5" as="geometry" />
        </mxCell>
        <mxCell id="aTunYatAO1bWsIIj06gY-94" style="edgeStyle=orthogonalEdgeStyle;rounded=0;orthogonalLoop=1;jettySize=auto;html=1;exitX=0.5;exitY=1;exitDx=0;exitDy=0;entryX=0.5;entryY=1;entryDx=0;entryDy=0;strokeWidth=3;fontSize=17;" edge="1" parent="WIyWlLk6GJQsqaUBKTNV-1" source="aTunYatAO1bWsIIj06gY-46" target="aTunYatAO1bWsIIj06gY-38">
          <mxGeometry relative="1" as="geometry" />
        </mxCell>
        <mxCell id="aTunYatAO1bWsIIj06gY-46" value="Book Already Borrowed" style="whiteSpace=wrap;html=1;strokeWidth=3;rounded=1;arcSize=12;labelBackgroundColor=none;fontSize=17;" vertex="1" parent="WIyWlLk6GJQsqaUBKTNV-1">
          <mxGeometry x="890" y="740" width="120" height="60" as="geometry" />
        </mxCell>
        <mxCell id="aTunYatAO1bWsIIj06gY-95" style="edgeStyle=orthogonalEdgeStyle;rounded=0;orthogonalLoop=1;jettySize=auto;html=1;exitX=1;exitY=0.5;exitDx=0;exitDy=0;strokeWidth=3;fontSize=17;" edge="1" parent="WIyWlLk6GJQsqaUBKTNV-1" source="aTunYatAO1bWsIIj06gY-48">
          <mxGeometry relative="1" as="geometry">
            <mxPoint x="1490" y="724" as="targetPoint" />
          </mxGeometry>
        </mxCell>
        <mxCell id="aTunYatAO1bWsIIj06gY-48" value=" Borrow Book" style="whiteSpace=wrap;html=1;strokeWidth=3;rounded=1;arcSize=12;labelBackgroundColor=none;fontSize=17;" vertex="1" parent="WIyWlLk6GJQsqaUBKTNV-1">
          <mxGeometry x="1160" y="694" width="120" height="60" as="geometry" />
        </mxCell>
        <mxCell id="aTunYatAO1bWsIIj06gY-54" value="T" style="text;html=1;align=center;verticalAlign=middle;resizable=0;points=[];autosize=1;strokeColor=none;fillColor=none;strokeWidth=3;fontSize=17;" vertex="1" parent="WIyWlLk6GJQsqaUBKTNV-1">
          <mxGeometry x="905" y="543" width="30" height="30" as="geometry" />
        </mxCell>
        <mxCell id="aTunYatAO1bWsIIj06gY-55" value="T" style="text;html=1;align=center;verticalAlign=middle;resizable=0;points=[];autosize=1;strokeColor=none;fillColor=none;strokeWidth=3;fontSize=17;" vertex="1" parent="WIyWlLk6GJQsqaUBKTNV-1">
          <mxGeometry x="1165" y="622" width="30" height="30" as="geometry" />
        </mxCell>
        <mxCell id="aTunYatAO1bWsIIj06gY-57" style="edgeStyle=orthogonalEdgeStyle;rounded=0;orthogonalLoop=1;jettySize=auto;html=1;exitX=0.5;exitY=1;exitDx=0;exitDy=0;exitPerimeter=0;entryX=0.5;entryY=0;entryDx=0;entryDy=0;entryPerimeter=0;strokeWidth=3;fontSize=17;" edge="1" parent="WIyWlLk6GJQsqaUBKTNV-1" source="aTunYatAO1bWsIIj06gY-8" target="aTunYatAO1bWsIIj06gY-9">
          <mxGeometry relative="1" as="geometry" />
        </mxCell>
        <mxCell id="aTunYatAO1bWsIIj06gY-68" value="" style="edgeStyle=orthogonalEdgeStyle;rounded=0;orthogonalLoop=1;jettySize=auto;html=1;strokeWidth=3;fontSize=17;" edge="1" parent="WIyWlLk6GJQsqaUBKTNV-1" source="aTunYatAO1bWsIIj06gY-62" target="aTunYatAO1bWsIIj06gY-67">
          <mxGeometry relative="1" as="geometry" />
        </mxCell>
        <mxCell id="aTunYatAO1bWsIIj06gY-62" value="Input Book Name" style="shape=parallelogram;html=1;strokeWidth=3;perimeter=parallelogramPerimeter;whiteSpace=wrap;rounded=1;arcSize=12;size=0.23;fontSize=17;" vertex="1" parent="WIyWlLk6GJQsqaUBKTNV-1">
          <mxGeometry x="480" y="779" width="205" height="80" as="geometry" />
        </mxCell>
        <mxCell id="aTunYatAO1bWsIIj06gY-64" value="END" style="strokeWidth=3;html=1;shape=mxgraph.flowchart.terminator;whiteSpace=wrap;fontSize=17;" vertex="1" parent="WIyWlLk6GJQsqaUBKTNV-1">
          <mxGeometry x="222.5" y="1410" width="170" height="110" as="geometry" />
        </mxCell>
        <mxCell id="aTunYatAO1bWsIIj06gY-66" value="Output:&lt;br style=&quot;font-size: 17px;&quot;&gt;Thank you for using the Library Management System!" style="shape=parallelogram;html=1;strokeWidth=3;perimeter=parallelogramPerimeter;whiteSpace=wrap;rounded=1;arcSize=12;size=0.23;fontSize=17;" vertex="1" parent="WIyWlLk6GJQsqaUBKTNV-1">
          <mxGeometry x="170" y="1230" width="275" height="140" as="geometry" />
        </mxCell>
        <mxCell id="aTunYatAO1bWsIIj06gY-71" style="edgeStyle=orthogonalEdgeStyle;rounded=0;orthogonalLoop=1;jettySize=auto;html=1;exitX=1;exitY=0.5;exitDx=0;exitDy=0;entryX=0.5;entryY=0;entryDx=0;entryDy=0;strokeWidth=3;fontSize=17;" edge="1" parent="WIyWlLk6GJQsqaUBKTNV-1" source="aTunYatAO1bWsIIj06gY-67" target="aTunYatAO1bWsIIj06gY-69">
          <mxGeometry relative="1" as="geometry" />
        </mxCell>
        <mxCell id="aTunYatAO1bWsIIj06gY-67" value="Check if Book Exists" style="rhombus;whiteSpace=wrap;html=1;strokeWidth=3;rounded=1;arcSize=12;fontSize=17;" vertex="1" parent="WIyWlLk6GJQsqaUBKTNV-1">
          <mxGeometry x="786" y="902" width="140" height="110" as="geometry" />
        </mxCell>
        <mxCell id="aTunYatAO1bWsIIj06gY-79" style="edgeStyle=orthogonalEdgeStyle;rounded=0;orthogonalLoop=1;jettySize=auto;html=1;exitX=0;exitY=0.5;exitDx=0;exitDy=0;entryX=0.5;entryY=0;entryDx=0;entryDy=0;strokeWidth=3;fontSize=17;" edge="1" parent="WIyWlLk6GJQsqaUBKTNV-1" source="aTunYatAO1bWsIIj06gY-69" target="aTunYatAO1bWsIIj06gY-104">
          <mxGeometry relative="1" as="geometry">
            <mxPoint x="895" y="1124.5" as="targetPoint" />
          </mxGeometry>
        </mxCell>
        <mxCell id="aTunYatAO1bWsIIj06gY-99" value="" style="edgeStyle=orthogonalEdgeStyle;rounded=0;orthogonalLoop=1;jettySize=auto;html=1;strokeWidth=3;fontSize=17;" edge="1" parent="WIyWlLk6GJQsqaUBKTNV-1" source="aTunYatAO1bWsIIj06gY-69" target="aTunYatAO1bWsIIj06gY-98">
          <mxGeometry relative="1" as="geometry" />
        </mxCell>
        <mxCell id="aTunYatAO1bWsIIj06gY-69" value="Check if Book Borrowed" style="rhombus;whiteSpace=wrap;html=1;strokeWidth=3;rounded=1;arcSize=12;fontSize=17;" vertex="1" parent="WIyWlLk6GJQsqaUBKTNV-1">
          <mxGeometry x="950" y="1012" width="156" height="130" as="geometry" />
        </mxCell>
        <mxCell id="aTunYatAO1bWsIIj06gY-72" value="T" style="text;html=1;align=center;verticalAlign=middle;resizable=0;points=[];autosize=1;strokeColor=none;fillColor=none;strokeWidth=3;fontSize=17;" vertex="1" parent="WIyWlLk6GJQsqaUBKTNV-1">
          <mxGeometry x="961" y="930" width="30" height="30" as="geometry" />
        </mxCell>
        <mxCell id="aTunYatAO1bWsIIj06gY-82" style="edgeStyle=orthogonalEdgeStyle;rounded=0;orthogonalLoop=1;jettySize=auto;html=1;exitX=0;exitY=0.5;exitDx=0;exitDy=0;entryX=0.5;entryY=0;entryDx=0;entryDy=0;strokeWidth=3;fontSize=17;" edge="1" parent="WIyWlLk6GJQsqaUBKTNV-1" target="aTunYatAO1bWsIIj06gY-105">
          <mxGeometry relative="1" as="geometry">
            <mxPoint x="820" y="1179.5" as="sourcePoint" />
            <mxPoint x="720.4999999999998" y="1212" as="targetPoint" />
          </mxGeometry>
        </mxCell>
        <mxCell id="aTunYatAO1bWsIIj06gY-83" value="F" style="text;html=1;align=center;verticalAlign=middle;resizable=0;points=[];autosize=1;strokeColor=none;fillColor=none;strokeWidth=3;fontSize=17;" vertex="1" parent="WIyWlLk6GJQsqaUBKTNV-1">
          <mxGeometry x="761" y="1150" width="30" height="30" as="geometry" />
        </mxCell>
        <mxCell id="aTunYatAO1bWsIIj06gY-85" value="F" style="text;html=1;align=center;verticalAlign=middle;resizable=0;points=[];autosize=1;strokeColor=none;fillColor=none;strokeWidth=3;fontSize=17;" vertex="1" parent="WIyWlLk6GJQsqaUBKTNV-1">
          <mxGeometry x="901" y="1040" width="30" height="30" as="geometry" />
        </mxCell>
        <mxCell id="aTunYatAO1bWsIIj06gY-86" style="edgeStyle=orthogonalEdgeStyle;rounded=0;orthogonalLoop=1;jettySize=auto;html=1;exitX=0.5;exitY=1;exitDx=0;exitDy=0;entryX=0.5;entryY=0;entryDx=0;entryDy=0;entryPerimeter=0;strokeWidth=3;fontSize=17;" edge="1" parent="WIyWlLk6GJQsqaUBKTNV-1" source="aTunYatAO1bWsIIj06gY-66" target="aTunYatAO1bWsIIj06gY-64">
          <mxGeometry relative="1" as="geometry" />
        </mxCell>
        <mxCell id="aTunYatAO1bWsIIj06gY-93" value="F" style="text;html=1;align=center;verticalAlign=middle;resizable=0;points=[];autosize=1;strokeColor=none;fillColor=none;strokeWidth=3;fontSize=17;" vertex="1" parent="WIyWlLk6GJQsqaUBKTNV-1">
          <mxGeometry x="935" y="618" width="30" height="30" as="geometry" />
        </mxCell>
        <mxCell id="aTunYatAO1bWsIIj06gY-101" style="edgeStyle=orthogonalEdgeStyle;rounded=0;orthogonalLoop=1;jettySize=auto;html=1;exitX=1;exitY=0.5;exitDx=0;exitDy=0;strokeWidth=3;fontSize=17;" edge="1" parent="WIyWlLk6GJQsqaUBKTNV-1" source="aTunYatAO1bWsIIj06gY-98">
          <mxGeometry relative="1" as="geometry">
            <mxPoint x="1490" y="1180" as="targetPoint" />
          </mxGeometry>
        </mxCell>
        <mxCell id="aTunYatAO1bWsIIj06gY-98" value="Return Book" style="whiteSpace=wrap;html=1;strokeWidth=3;rounded=1;arcSize=12;fontSize=17;" vertex="1" parent="WIyWlLk6GJQsqaUBKTNV-1">
          <mxGeometry x="1180" y="1149.5" width="120" height="60" as="geometry" />
        </mxCell>
        <mxCell id="aTunYatAO1bWsIIj06gY-102" value="T" style="text;html=1;align=center;verticalAlign=middle;resizable=0;points=[];autosize=1;strokeColor=none;fillColor=none;strokeWidth=3;fontSize=17;" vertex="1" parent="WIyWlLk6GJQsqaUBKTNV-1">
          <mxGeometry x="1165" y="1048" width="30" height="30" as="geometry" />
        </mxCell>
        <mxCell id="aTunYatAO1bWsIIj06gY-104" value="Book Wasn&#39;t Borrowed" style="rounded=1;whiteSpace=wrap;html=1;absoluteArcSize=1;arcSize=14;strokeWidth=3;fontSize=17;" vertex="1" parent="WIyWlLk6GJQsqaUBKTNV-1">
          <mxGeometry x="821" y="1142" width="110" height="60" as="geometry" />
        </mxCell>
        <mxCell id="aTunYatAO1bWsIIj06gY-106" style="edgeStyle=orthogonalEdgeStyle;rounded=0;orthogonalLoop=1;jettySize=auto;html=1;exitX=0.5;exitY=1;exitDx=0;exitDy=0;entryX=0.5;entryY=1;entryDx=0;entryDy=0;strokeWidth=3;fontSize=17;" edge="1" parent="WIyWlLk6GJQsqaUBKTNV-1" source="aTunYatAO1bWsIIj06gY-105" target="aTunYatAO1bWsIIj06gY-69">
          <mxGeometry relative="1" as="geometry" />
        </mxCell>
        <mxCell id="aTunYatAO1bWsIIj06gY-105" value="Book Not Found" style="rounded=1;whiteSpace=wrap;html=1;absoluteArcSize=1;arcSize=14;strokeWidth=3;fontSize=17;" vertex="1" parent="WIyWlLk6GJQsqaUBKTNV-1">
          <mxGeometry x="670" y="1230" width="110" height="60" as="geometry" />
        </mxCell>
        <mxCell id="aTunYatAO1bWsIIj06gY-108" style="edgeStyle=orthogonalEdgeStyle;rounded=0;orthogonalLoop=1;jettySize=auto;html=1;exitX=0.5;exitY=1;exitDx=0;exitDy=0;entryX=0.5;entryY=0;entryDx=0;entryDy=0;entryPerimeter=0;" edge="1" parent="WIyWlLk6GJQsqaUBKTNV-1" source="aTunYatAO1bWsIIj06gY-3" target="aTunYatAO1bWsIIj06gY-8">
          <mxGeometry relative="1" as="geometry" />
        </mxCell>
      </root>
    </mxGraphModel>
  </diagram>
</mxfile>
